<?xml version="1.0" standalone="no"?>
<!DOCTYPE svg PUBLIC "-//W3C//DTD SVG 20010904//EN"
 "http://www.w3.org/TR/2001/REC-SVG-20010904/DTD/svg10.dtd">
<svg version="1.0" xmlns="http://www.w3.org/2000/svg"
 width="640.000000pt" height="640.000000pt" viewBox="0 0 640.000000 640.000000"
 preserveAspectRatio="xMidYMid meet">

<g transform="translate(0.000000,640.000000) scale(0.100000,-0.100000)"
fill="#000000" stroke="none">
<path d="M2 6220 c2 -136 5 -181 15 -184 18 -7 17 -117 -2 -162 -13 -31 -15
-373 -14 -2711 0 -1558 3 -2673 8 -2667 10 10 23 67 22 99 0 10 5 25 10 32 18
21 39 -10 39 -59 0 -48 13 -68 43 -68 13 0 17 -5 13 -15 -3 -8 -1 -15 4 -15 6
0 10 -19 10 -42 0 -69 12 -34 17 49 3 43 9 85 14 94 5 10 8 36 7 59 -1 45 10
64 31 51 9 -6 14 -26 14 -54 -1 -32 3 -47 14 -52 13 -4 15 -18 11 -73 -6 -72
-2 -96 14 -86 10 7 7 -9 -15 -73 -9 -26 -17 -33 -37 -33 -24 0 -60 29 -60 49
0 4 -18 3 -40 -2 -36 -10 -40 -14 -46 -54 -9 -60 -30 -56 -39 7 -16 118 -35
20 -35 -182 0 -134 4 -145 42 -111 17 15 18 15 18 0 0 -14 11 -17 65 -17 51 0
65 3 65 15 0 8 9 15 20 15 11 0 23 -7 26 -15 5 -11 21 -15 60 -15 53 0 53 0
60 35 3 19 10 38 15 41 5 3 9 16 9 29 0 13 5 25 12 27 17 6 20 45 3 52 -10 3
-15 19 -15 44 0 25 -9 52 -25 76 -34 50 -36 130 -3 147 44 23 67 63 43 73 -8
3 -17 -5 -24 -22 l-9 -27 -1 27 c-1 14 -6 28 -11 30 -6 2 -13 20 -17 41 -4 28
-1 42 12 57 27 30 33 125 9 151 -19 21 -17 29 19 119 5 14 9 70 8 126 -1 110
-5 104 65 107 20 0 30 5 28 12 -6 14 40 36 60 29 13 -5 29 -99 27 -159 -2 -29
-42 -74 -67 -75 -7 0 -15 -12 -19 -27 -6 -24 -1 -32 29 -58 20 -16 36 -39 36
-50 0 -12 4 -25 9 -30 5 -6 12 -43 15 -82 4 -54 2 -83 -10 -113 -14 -35 -15
-55 -4 -160 8 -90 8 -144 0 -217 -7 -60 -8 -117 -3 -148 l8 -50 172 -3 171 -2
13 102 c8 57 14 168 14 248 0 138 -1 148 -29 209 -23 52 -27 73 -23 110 3 25
44 159 90 296 46 138 91 277 101 310 17 59 20 63 154 176 75 64 182 150 237
191 99 74 491 339 612 412 34 21 70 47 79 57 16 18 16 21 2 35 -20 21 -31 15
-273 -144 -337 -221 -481 -325 -688 -499 -47 -40 -88 -73 -90 -73 -3 0 -5 51
-5 114 l-1 114 62 33 c129 68 348 195 566 328 124 76 298 181 386 233 112 67
161 101 163 115 9 59 -49 29 -638 -332 -118 -72 -260 -156 -315 -187 -205
-114 -235 -128 -240 -115 -3 6 -13 39 -24 72 -11 33 -31 89 -46 124 -45 106
-45 188 -1 346 60 217 59 273 -10 428 -48 110 -55 152 -37 235 20 92 11 141
-44 241 -124 229 -139 282 -146 536 -4 131 -12 209 -28 285 -16 78 -22 141
-23 245 -1 209 20 257 140 316 49 24 82 33 137 36 87 5 103 -2 324 -153 200
-136 541 -352 635 -403 114 -61 132 -58 221 32 123 122 298 210 538 270 206
52 287 62 539 61 205 0 249 -3 347 -23 85 -17 116 -20 132 -12 11 6 41 53 65
104 58 118 248 384 410 572 155 180 302 285 402 285 27 0 44 -8 69 -33 39 -39
52 -79 66 -202 6 -49 18 -110 26 -135 36 -111 54 -185 77 -320 14 -80 37 -179
51 -220 29 -85 42 -162 55 -332 10 -134 20 -163 103 -286 63 -93 97 -174 97
-230 0 -51 22 -127 54 -190 27 -53 50 -79 188 -209 42 -40 90 -94 107 -120 35
-52 64 -140 59 -175 l-3 -23 -645 0 -645 0 0 -25 0 -25 651 -3 651 -2 6 -73
c3 -43 16 -97 32 -136 14 -35 24 -66 21 -69 -3 -3 -97 14 -208 36 -279 57
-854 152 -918 152 -32 0 -45 -23 -25 -43 7 -8 40 -17 72 -21 198 -23 901 -148
1057 -188 46 -12 50 -16 62 -58 7 -25 17 -79 22 -121 5 -42 18 -93 27 -113 21
-43 91 -117 190 -200 203 -169 314 -312 417 -538 32 -69 58 -131 58 -137 0 -5
5 -13 10 -16 7 -4 10 66 9 202 0 114 -4 199 -8 188 -7 -17 -8 -16 -15 9 -4 15
-4 37 0 49 7 22 7 22 15 2 4 -11 7 111 6 270 -2 250 -4 290 -17 290 -9 0 -16
11 -18 28 -2 15 -9 39 -17 53 -18 35 -8 65 27 78 24 9 28 16 28 48 0 30 -4 38
-17 38 -10 0 -33 9 -50 20 l-33 20 0 86 c0 98 9 114 64 114 l36 0 0 60 c0 47
-3 60 -15 60 -8 0 -15 9 -15 20 0 18 -4 20 -35 14 -33 -6 -35 -4 -35 19 0 14
5 29 10 32 6 3 10 21 10 39 0 40 27 68 58 59 21 -5 22 -3 22 82 l0 86 -37 -30
c-43 -36 -62 -39 -60 -11 1 11 5 20 10 20 5 0 7 7 3 15 -3 10 5 20 25 31 29
14 32 14 45 -3 11 -15 13 7 14 164 0 113 -4 192 -11 210 -7 15 -11 38 -10 51
1 33 -13 27 -28 -13 -13 -36 -35 -46 -45 -20 -9 25 15 65 40 65 44 0 54 10 54
55 0 37 -3 44 -22 47 -19 3 -22 10 -26 63 -2 36 -9 64 -18 71 -8 6 -14 16 -14
22 0 21 34 52 57 52 21 0 23 4 23 55 l0 56 -34 -6 c-39 -8 -51 4 -31 31 8 11
14 14 15 7 0 -19 50 -16 50 2 0 8 -4 15 -9 15 -5 0 -11 14 -14 30 -10 49 -34
34 -28 -17 2 -18 -14 -16 -33 3 -11 10 -16 34 -16 74 0 55 2 61 28 74 16 8 39
12 50 9 21 -5 22 -3 22 90 0 87 -2 96 -20 102 -11 3 -20 12 -20 20 0 7 -10 15
-22 17 -16 2 -24 12 -29 35 -8 38 1 48 54 57 35 7 37 9 37 45 0 37 -1 39 -40
45 -32 5 -41 11 -46 33 -4 14 -2 34 5 44 6 10 11 26 11 36 0 16 1 16 13 0 11
-16 15 -16 32 -3 17 12 20 29 23 152 2 123 1 136 -11 115 -17 -28 -32 -13 -23
22 5 22 -3 45 -34 94 -12 19 -12 24 4 42 11 12 29 21 40 21 21 0 21 4 23 191
l2 190 -30 11 c-33 11 -36 24 -13 49 12 13 15 28 10 52 -5 28 -12 36 -36 41
-26 5 -30 10 -30 39 0 30 4 35 39 47 21 7 44 10 49 6 8 -5 11 62 11 219 l-1
225 -1426 0 c-1257 -1 -1425 -2 -1408 -15 18 -13 18 -15 3 -15 -16 0 -16 -2 0
-27 17 -26 17 -27 0 -20 -15 6 -16 4 -7 -13 9 -17 7 -22 -12 -29 -13 -5 -24
-5 -26 0 -2 5 -20 9 -39 9 -19 0 -53 10 -75 22 -30 17 -41 19 -47 10 -12 -20
-34 12 -26 38 4 14 15 20 33 19 26 0 26 -1 5 -9 -33 -13 -28 -19 9 -11 20 4
34 14 36 24 3 16 -18 17 -276 17 -305 0 -299 1 -317 -59 l-8 -25 -19 23 c-11
14 -16 32 -13 42 6 18 -6 19 -289 19 -177 0 -296 -4 -296 -9 0 -5 -9 -13 -20
-16 -16 -5 -20 -15 -20 -50 0 -36 -3 -44 -20 -47 -30 -4 -29 -22 0 -26 14 -2
30 -8 35 -14 7 -6 7 -9 0 -8 -37 7 -55 -1 -55 -25 0 -28 -27 -45 -40 -26 -4 7
-11 12 -16 12 -5 -1 -10 10 -12 24 -2 14 1 25 7 25 6 0 10 3 9 8 0 4 7 25 16
47 10 22 23 52 29 67 9 21 20 28 47 31 19 2 -334 4 -785 5 l-820 2 -1 -63 c-1
-89 -15 -117 -57 -117 -21 0 -41 8 -52 20 -10 11 -23 20 -29 20 -6 0 -24 14
-39 30 -16 17 -35 30 -43 30 -18 0 -19 44 -1 58 7 6 30 12 52 15 22 2 -8 4
-67 5 -87 2 -108 -1 -108 -12 0 -8 -6 -17 -12 -19 -10 -4 -10 -6 0 -6 17 -1
15 -18 -4 -25 -25 -10 -33 2 -24 34 l9 30 -90 0 -89 0 2 -180z m4330 148 c2
-13 0 -50 -3 -84 -10 -97 -50 -122 -144 -90 -21 8 -41 20 -44 27 -2 8 -8 17
-14 20 -13 9 -28 97 -21 125 6 23 9 24 114 24 105 0 109 -1 112 -22z m283 12
c-3 -5 -10 -10 -16 -10 -5 0 -9 5 -9 10 0 6 7 10 16 10 8 0 12 -4 9 -10z m815
-11 c0 -12 8 -37 17 -56 l16 -35 66 7 c36 4 77 8 91 9 18 1 26 8 28 24 5 31
20 28 28 -5 3 -16 7 -34 10 -41 2 -7 -6 -23 -17 -35 -27 -29 -39 -60 -32 -86
3 -14 0 -23 -11 -27 -14 -5 -15 -19 -10 -99 l7 -92 -30 -6 c-36 -7 -73 1 -74
17 -2 13 -1 15 5 51 3 15 1 34 -4 43 -5 10 -11 29 -15 45 -8 40 -21 33 -50
-24 -23 -45 -25 -53 -12 -67 20 -24 28 -49 34 -110 4 -44 2 -56 -13 -67 -17
-12 -17 -20 -5 -141 21 -214 21 -225 9 -247 -21 -37 -37 -109 -37 -162 0 -27
3 -44 6 -37 12 31 18 5 19 -85 0 -54 4 -125 8 -158 10 -70 -10 -134 -40 -132
-22 2 -40 -51 -19 -59 7 -3 16 -29 19 -57 4 -29 10 -62 13 -75 5 -21 6 -22 19
-5 12 16 13 5 13 -77 0 -68 -4 -101 -14 -114 -19 -25 -19 -65 -1 -72 23 -9 26
-30 12 -71 l-13 -37 -7 27 c-8 33 -21 34 -41 3 -9 -13 -24 -26 -35 -29 -30 -8
-36 45 -14 126 4 12 0 17 -14 17 -47 0 -51 65 -6 94 26 18 70 21 79 6 12 -20
25 -9 25 21 0 17 -4 28 -10 24 -5 -3 -10 -2 -10 4 0 5 -13 12 -29 16 -36 8
-41 30 -35 145 4 68 9 89 26 108 12 12 28 22 35 22 8 0 11 5 8 10 -3 6 -1 10
4 10 6 0 11 5 11 11 0 5 -12 9 -27 8 -79 -6 -103 12 -103 75 0 23 -5 47 -10
52 -7 7 -7 27 1 62 8 41 17 55 39 67 15 8 30 12 33 9 3 -3 14 -3 25 0 37 12
15 43 -34 51 -28 4 -48 13 -54 25 -14 27 -12 117 4 172 13 42 56 102 56 78 0
-5 12 -10 28 -9 26 0 26 1 5 9 -13 5 -23 13 -23 17 0 5 -12 14 -28 20 -48 22
-63 60 -57 153 5 85 13 105 46 115 23 8 25 38 3 56 -17 14 -14 64 9 127 9 25
9 37 -1 52 -13 22 -16 86 -4 93 4 3 7 45 7 94 l0 88 -27 3 c-27 3 -28 7 -19
65 0 4 28 7 61 7 54 0 60 -2 60 -21z m-630 -47 c0 -44 -5 -63 -18 -75 -14 -13
-21 -14 -30 -5 -7 7 -12 16 -12 21 0 5 -11 18 -25 29 -19 15 -24 26 -19 42 9
30 26 41 68 44 l36 3 0 -59z m-3480 24 c0 -11 -19 -15 -25 -6 -3 5 1 10 9 10
9 0 16 -2 16 -4z m200 -26 c0 -10 -5 -42 -11 -70 -9 -43 -14 -50 -34 -50 -22
0 -24 4 -23 48 1 26 -1 57 -6 70 -7 20 -4 22 33 22 34 0 41 -3 41 -20z m4326
-62 c-8 -97 -16 -114 -16 -35 0 31 -4 59 -10 62 -5 3 -10 17 -10 31 0 18 5 24
21 24 20 0 21 -3 15 -82z m272 62 c7 -11 20 -20 30 -20 10 0 28 -10 40 -23 22
-23 22 -23 2 -40 -22 -18 -80 -23 -80 -7 0 6 -8 10 -17 10 -10 0 -31 11 -48
25 l-30 24 30 25 c37 31 56 32 73 6z m-6035 -40 c-7 -25 -15 -25 -31 0 -16 27
-7 43 18 30 12 -6 16 -17 13 -30z m1637 26 c0 -3 -4 -8 -10 -11 -5 -3 -10 -1
-10 4 0 6 5 11 10 11 6 0 10 -2 10 -4z m815 -16 c3 -5 1 -10 -4 -10 -6 0 -11
5 -11 10 0 6 2 10 4 10 3 0 8 -4 11 -10z m2093 -39 c-2 -26 -8 -37 -22 -39
-15 -3 -18 0 -14 16 4 13 0 23 -9 26 -23 9 2 45 27 39 17 -5 20 -12 18 -42z
m-4403 -133 c0 -91 -3 -169 -6 -172 -3 -3 -19 -9 -36 -12 l-31 -6 -4 76 c-3
66 -1 77 15 82 24 8 21 29 -6 41 -20 9 -23 18 -22 74 0 57 2 65 25 76 14 7 34
12 45 11 19 -3 20 -11 20 -170z m2704 87 c-4 -48 9 -123 22 -130 5 -3 17 -1
28 4 22 12 73 -1 53 -13 -7 -4 -12 -20 -12 -35 0 -31 -21 -81 -33 -81 -5 0
-11 9 -14 20 -7 25 -33 25 -76 0 -31 -18 -37 -19 -68 -6 -69 29 -110 101 -83
147 34 59 55 112 50 125 -10 27 5 45 33 40 14 -3 33 -2 41 4 10 6 21 3 38 -13
18 -17 23 -31 21 -62z m-1329 45 c0 -13 -6 -17 -20 -13 -11 3 -20 13 -20 23 0
13 6 17 20 13 11 -3 20 -13 20 -23z m2288 8 c-5 -32 -28 -35 -28 -4 0 17 5 26
16 26 10 0 14 -7 12 -22z m-2148 -3 c0 -8 -6 -15 -14 -15 -8 0 -20 -2 -28 -5
-18 -7 -42 10 -34 24 11 17 76 14 76 -4z m-975 -16 c-4 -6 2 -13 14 -16 19 -5
21 -13 21 -69 0 -44 4 -64 13 -65 6 -1 17 -2 22 -4 6 -1 18 -3 28 -3 12 -1 15
-6 10 -14 -4 -7 -8 -19 -10 -27 -3 -24 -22 -36 -35 -23 -7 7 -28 13 -47 13
-24 1 -28 3 -13 6 37 7 25 23 -18 23 -33 0 -42 4 -52 25 -8 19 -8 28 2 40 18
22 30 18 30 -10 0 -14 4 -25 9 -25 5 0 7 36 5 80 -3 67 -1 80 12 80 8 0 12 -5
9 -11z m2875 -30 c0 -6 -4 -7 -10 -4 -5 3 -10 11 -10 16 0 6 5 7 10 4 6 -3 10
-11 10 -16z m2724 -65 c-21 -64 -30 -72 -52 -51 -16 17 -16 19 1 48 9 17 17
37 17 44 0 15 30 25 43 15 4 -4 0 -29 -9 -56z m-2466 -23 c0 -44 3 -84 6 -89
9 -15 -15 -73 -28 -69 -6 2 -10 15 -9 28 1 13 -1 31 -4 39 -8 20 -7 52 1 71 4
8 2 28 -3 42 -13 33 -5 57 20 57 16 0 18 -9 17 -79z m-582 53 c-6 -15 0 -16
56 -9 183 21 228 -1 235 -119 3 -39 9 -78 14 -88 5 -9 9 -44 9 -78 0 -54 3
-63 20 -67 19 -5 21 -13 19 -78 -2 -61 2 -78 19 -100 41 -52 40 -121 -3 -170
-23 -28 -35 -72 -35 -137 0 -20 -5 -49 -12 -63 -9 -21 -9 -31 0 -46 15 -23 15
-64 2 -89 -7 -14 -7 -25 2 -39 15 -24 12 -28 -27 -33 -28 -3 -30 -1 -30 32 l0
35 -80 6 c-44 4 -92 10 -107 14 -27 7 -27 6 -21 -30 9 -57 39 -82 103 -88 89
-9 164 -22 178 -31 8 -5 11 -18 7 -34 -3 -15 -6 -44 -7 -65 -1 -22 -7 -41 -15
-44 -17 -7 -17 -28 0 -45 8 -7 16 -40 20 -72 5 -53 4 -60 -19 -81 -26 -24 -33
-58 -10 -49 17 7 24 -14 28 -81 2 -49 0 -52 -31 -46 -6 0 -11 15 -13 33 -4 38
-20 44 -135 49 l-78 4 3 -29 c3 -28 2 -29 -35 -23 -21 4 -65 7 -98 7 l-60 0 1
78 c0 56 5 85 17 102 9 14 17 32 17 40 0 16 45 62 53 54 2 -2 11 4 20 14 14
16 14 20 0 50 -8 17 -22 32 -30 32 -10 0 -13 6 -9 16 3 9 6 19 6 24 0 5 13 11
28 15 39 8 43 51 6 65 -34 13 -33 14 -44 -15 -5 -14 -20 -30 -32 -35 -22 -8
-22 -9 5 -9 15 -1 27 -6 27 -12 0 -14 -21 -33 -41 -37 -15 -2 -17 15 -21 130
-5 149 -3 168 21 169 12 0 11 2 -4 9 -17 7 -17 9 -3 9 10 1 25 12 34 26 19 29
36 33 32 8 -2 -12 4 -19 19 -21 17 -3 26 4 33 24 16 41 8 88 -16 93 -24 4 -54
30 -54 48 0 12 -25 18 -57 14 -9 -1 -13 13 -13 43 0 49 11 64 30 41 16 -19 44
-19 60 0 9 11 9 22 0 51 -14 42 -8 117 10 139 17 20 76 20 84 -1 3 -9 6 -38 6
-65 0 -49 0 -49 28 -43 37 10 95 47 119 78 11 14 23 23 27 21 3 -3 2 0 -4 7
-12 15 -74 38 -127 47 -49 9 -73 26 -73 52 0 20 -28 39 -59 39 -23 0 -67 34
-83 64 -8 15 -5 23 16 40 23 18 27 31 32 94 l5 72 -26 0 c-23 0 -26 4 -23 28
2 21 9 28 31 30 19 2 27 9 27 23 0 11 7 19 16 19 11 0 14 -5 10 -16z m-56 -4
c0 -5 -4 -10 -10 -10 -5 0 -10 5 -10 10 0 6 5 10 10 10 6 0 10 -4 10 -10z
m2881 -32 c6 -13 20 -31 31 -42 11 -10 18 -26 15 -37 -3 -11 -1 -20 4 -20 5
-1 15 -2 22 -3 14 -1 23 -46 9 -46 -6 0 -12 3 -15 8 -2 4 -2 1 -1 -5 2 -7 -5
-17 -14 -22 -14 -9 -14 -10 -1 -11 8 0 20 5 26 11 7 7 12 4 16 -11 4 -17 2
-20 -16 -16 -12 3 -17 3 -10 0 15 -7 5 -105 -11 -116 -12 -8 -13 -14 -15 -65
-1 -40 -15 -42 -78 -9 -25 14 -52 22 -60 19 -8 -3 -24 -1 -36 5 -12 5 -30 13
-39 16 -28 9 -23 61 11 104 41 53 54 97 35 117 -9 8 -25 15 -36 15 -14 0 -18
5 -14 16 3 9 6 21 6 28 0 7 15 29 34 49 29 32 39 37 79 37 38 0 48 -4 58 -22z
m-5616 -17 c3 -10 5 -23 3 -27 -3 -12 11 -83 24 -120 15 -43 -7 -146 -39 -184
-21 -26 -22 -28 -5 -33 16 -3 20 -18 25 -88 4 -46 7 -133 7 -192 0 -60 4 -116
8 -125 5 -9 6 -55 2 -102 -5 -68 -12 -93 -32 -126 -26 -41 -29 -42 -83 -35 -6
0 -32 20 -59 44 -45 41 -47 46 -44 88 3 40 6 44 33 49 26 4 30 10 33 43 2 24
8 37 18 37 28 0 13 17 -23 26 -31 8 -38 13 -35 32 2 25 24 52 41 52 5 0 15 8
20 18 10 16 10 16 11 0 0 -10 3 -18 8 -18 15 0 29 48 28 96 -1 46 -3 49 -31
54 -26 4 -30 10 -33 43 -2 23 3 48 13 63 15 23 14 25 -2 31 -67 25 -96 82 -74
145 8 21 8 35 1 42 -14 14 -13 142 1 169 18 33 28 37 106 37 62 0 72 -3 78
-19z m945 9 c0 -5 -4 -10 -10 -10 -5 0 -10 5 -10 10 0 6 5 10 10 10 6 0 10 -4
10 -10z m4360 -15 c0 -8 -4 -15 -10 -15 -5 0 -10 7 -10 15 0 8 5 15 10 15 6 0
10 -7 10 -15z m-4324 -11 c-4 -9 -1 -23 5 -31 13 -15 6 -28 -10 -18 -14 8 -14
65 0 65 6 0 8 -7 5 -16z m-209 -44 c6 -14 12 -19 12 -12 1 6 6 12 12 12 6 0 9
-14 7 -32 -2 -25 -7 -32 -20 -30 -14 2 -18 -4 -18 -32 0 -19 -4 -37 -9 -41 -6
-3 -6 -18 -1 -36 9 -31 4 -59 -11 -59 -14 0 -49 43 -49 61 0 10 8 24 18 31 24
17 29 90 7 108 -18 15 -20 47 -2 53 25 8 42 1 54 -23z m415 -15 c2 -25 -1 -50
-6 -55 -6 -6 -6 -10 -2 -10 5 0 3 -7 -4 -15 -9 -10 -9 -15 -1 -15 19 0 12 -17
-9 -23 -11 -3 -20 -9 -19 -14 4 -23 -2 -63 -10 -63 -10 0 -9 55 2 66 10 11 9
69 -4 120 -12 45 -23 55 -33 29 -9 -23 -35 -19 -29 5 4 17 14 20 58 20 l53 0
4 -45z m2815 3 c-7 -10 -13 -14 -15 -8 -2 5 -12 10 -23 10 -10 0 -19 7 -19 15
0 18 12 19 28 3 9 -9 13 -7 18 6 5 13 9 14 14 5 5 -7 3 -21 -3 -31z m-3607 -2
c0 -3 -4 -8 -10 -11 -5 -3 -10 -1 -10 4 0 6 5 11 10 11 6 0 10 -2 10 -4z m560
-11 c0 -8 -7 -15 -15 -15 -9 0 -12 6 -9 15 4 8 10 15 15 15 5 0 9 -7 9 -15z
m2796 -16 c15 -17 19 -37 20 -108 1 -47 -1 -114 -4 -149 l-5 -63 -46 3 -46 3
-2 110 c-1 61 -2 116 -3 122 0 7 -11 15 -25 19 -31 8 -33 37 -2 51 82 38 88
39 113 12z m362 -77 c-3 -49 -6 -57 -23 -57 -17 0 -21 8 -23 45 -2 24 -1 60 3
78 l6 34 20 -21 c16 -17 19 -33 17 -79z m153 19 c-6 -11 -11 -28 -11 -39 0
-11 -7 -22 -15 -26 -9 -3 -15 -18 -15 -35 0 -35 -8 -42 -39 -34 -21 5 -22 10
-17 47 4 22 14 44 21 49 8 4 15 15 15 23 0 8 7 17 15 20 8 4 15 13 15 22 0 8
8 24 18 35 17 19 17 19 20 -11 2 -17 -2 -40 -7 -51z m-3276 -3 c2 -7 6 -37 10
-65 l6 -53 -29 0 c-41 0 -51 17 -45 78 5 47 8 52 30 52 13 0 25 -6 28 -12z
m-655 -58 c0 -47 -3 -60 -15 -60 -11 0 -15 12 -15 46 0 30 -4 43 -11 39 -15
-10 0 -107 19 -121 9 -6 16 -32 19 -67 4 -50 2 -56 -18 -62 -15 -5 -26 -2 -33
7 -6 8 -31 19 -56 24 l-45 9 0 47 c0 26 -6 53 -12 59 -16 16 -17 63 -2 91 8
14 17 18 33 14 13 -3 32 1 45 10 12 9 25 14 27 11 4 -4 29 1 62 12 1 1 2 -26
2 -59z m3670 19 c0 -11 -7 -19 -16 -19 -11 0 -14 5 -10 16 3 9 6 20 6 25 0 6
5 7 10 4 6 -3 10 -15 10 -26z m1307 -14 c12 -27 2 -41 -22 -31 -22 8 -18 56 4
56 3 0 11 -11 18 -25z m-2925 -27 c34 -37 35 -40 25 -160 -5 -57 -4 -88 3 -93
5 -3 10 -40 10 -81 l0 -74 38 -1 c70 -2 86 -11 96 -56 5 -23 5 -50 1 -60 -4
-10 -9 -30 -11 -44 -6 -43 -33 -98 -55 -109 -16 -9 -28 -9 -50 0 -21 9 -36 10
-56 2 -46 -18 -111 -18 -132 0 -10 9 -35 22 -54 29 l-35 12 -1 107 c-2 119 5
146 55 206 28 35 34 51 34 88 0 35 -5 48 -20 56 -16 9 -20 21 -20 64 0 97 36
145 108 146 26 0 42 -8 64 -32z m-2689 4 c3 -4 -3 -18 -14 -31 -13 -16 -19
-19 -19 -8 0 35 21 60 33 39z m5386 -36 c15 -61 14 -92 -5 -110 -21 -22 -29
-20 -59 10 -23 23 -26 32 -20 68 6 40 35 76 60 76 7 0 18 -20 24 -44z m-1102
12 c-3 -8 -6 -5 -6 6 -1 11 2 17 5 13 3 -3 4 -12 1 -19z m-2823 -34 c21 -54
-6 -99 -52 -87 -42 10 -23 83 21 83 10 0 15 5 12 10 -3 6 -2 10 3 10 6 0 13
-7 16 -16z m1346 1 c11 -13 8 -15 -18 -15 -31 0 -47 11 -35 24 11 11 40 6 53
-9z m-2810 -129 c0 -61 4 -116 8 -122 4 -7 5 -39 4 -73 -3 -48 -7 -61 -20 -61
-12 0 -11 -5 7 -24 20 -21 22 -33 20 -98 -1 -40 4 -91 11 -112 9 -29 10 -47 1
-75 -6 -20 -12 -56 -14 -81 -2 -37 -6 -46 -23 -48 -12 -2 -34 9 -53 27 -31 29
-32 33 -29 98 3 62 5 68 26 71 25 4 29 17 7 26 -23 9 -20 112 5 161 25 49 25
48 -2 60 -19 8 -24 19 -26 65 -3 46 0 59 17 74 19 17 21 31 21 121 0 56 3 104
6 108 3 3 12 3 20 0 11 -4 14 -30 14 -117z m3663 58 c0 -27 3 -54 9 -61 5 -7
7 -22 3 -34 -7 -21 -8 -21 -24 -3 -13 15 -16 33 -13 87 2 46 8 67 15 64 7 -2
11 -23 10 -53z m-2363 -19 l0 -65 -35 0 c-29 0 -36 4 -41 25 -3 14 -1 31 5 39
6 7 9 20 6 29 -6 13 26 33 58 36 4 1 7 -28 7 -64z m1530 44 c0 -18 -2 -20 -15
-9 -13 11 -13 15 -3 21 18 12 18 12 18 -12z m2796 -66 c4 -38 7 -79 7 -93 -1
-42 -15 -110 -23 -110 -12 0 -20 28 -14 45 4 8 2 21 -4 28 -22 27 -6 197 19
197 4 0 11 -30 15 -67z m-1345 -10 c-9 -16 -10 -16 -11 4 0 12 3 30 7 40 7 16
8 16 11 -4 2 -12 -1 -30 -7 -40z m278 24 c5 -13 16 -29 25 -36 12 -10 16 -30
15 -75 -1 -54 -5 -64 -31 -88 -39 -37 -85 -38 -98 -2 -16 41 -12 71 10 77 14
3 20 14 20 31 0 19 -5 26 -20 26 -17 0 -20 7 -20 38 0 48 4 52 52 52 31 0 40
-4 47 -23z m-3467 -33 c4 -36 -4 -50 -23 -38 -7 4 -8 9 0 17 7 7 2 16 -16 30
-24 19 -25 21 -7 27 30 11 42 1 46 -36z m-72 7 c0 -5 3 -18 7 -28 6 -16 5 -16
-10 -4 -19 15 -23 41 -7 41 6 0 10 -4 10 -9z m4849 -25 c36 -19 96 -133 80
-153 -9 -10 -7 -13 7 -13 14 0 15 -3 6 -12 -17 -17 -15 -24 18 -58 25 -25 29
-37 26 -65 -3 -19 0 -35 5 -35 5 0 9 -7 9 -15 0 -8 -6 -15 -14 -15 -8 0 -17
-13 -21 -28 l-6 -28 -59 9 c-33 5 -57 14 -54 18 3 5 -6 9 -19 9 -31 0 -85 27
-96 48 -5 9 -12 36 -16 59 -6 40 -5 44 20 53 15 6 33 17 42 25 20 21 9 65 -16
65 -38 0 -51 12 -51 44 0 56 10 71 53 88 55 20 53 20 86 4z m-485 -47 c8 -28
9 -58 4 -78 -8 -29 -12 -32 -41 -29 -30 3 -32 5 -40 58 -7 52 -6 56 19 78 14
13 31 21 37 19 5 -1 15 -23 21 -48z m-2324 21 c0 -5 -7 -10 -16 -10 -8 0 -12
5 -9 10 3 6 10 10 16 10 5 0 9 -4 9 -10z m-2416 -26 c18 -7 21 -36 5 -65 -7
-15 -7 -24 1 -35 10 -11 9 -15 -1 -19 -26 -9 -94 0 -105 14 -18 23 -33 4 -27
-34 4 -26 2 -35 -8 -35 -8 0 -4 -7 9 -16 19 -13 20 -17 8 -30 -8 -8 -22 -14
-30 -14 -15 0 -20 12 -29 73 -6 38 16 96 43 117 18 14 20 19 9 26 -21 14 94
30 125 18z m1678 -19 c3 -16 1 -25 -7 -25 -7 0 -12 11 -12 25 0 14 3 25 7 25
4 0 10 -11 12 -25z m1982 -1 c10 -25 7 -31 -14 -29 -31 2 -49 23 -30 35 22 14
37 12 44 -6z m-3000 -54 c4 -33 4 -65 1 -70 -7 -12 -72 -14 -78 -2 -3 4 -7 28
-11 53 -8 55 9 79 53 79 27 0 29 -3 35 -60z m2374 13 c0 -37 -7 -46 -24 -32
-17 14 -18 56 -1 62 19 7 24 0 25 -30z m352 27 c0 -5 8 -10 18 -10 11 0 27 -9
37 -19 26 -29 12 -154 -21 -194 -28 -33 -31 -62 -8 -75 14 -8 11 -14 -17 -41
-31 -28 -39 -31 -89 -29 l-55 3 2 34 c1 18 6 36 11 40 5 3 13 17 17 31 4 13
14 30 21 38 8 7 14 22 14 31 0 10 7 24 15 31 24 20 18 26 -32 36 -47 9 -48 9
-45 44 5 50 15 62 59 76 49 15 73 17 73 4z m-2651 -32 c-1 -7 -1 -36 0 -64 1
-42 5 -53 20 -57 17 -4 19 -11 15 -48 -3 -24 -6 -55 -7 -69 -2 -28 -10 -30
-48 -11 -22 11 -26 20 -27 61 0 31 4 53 13 60 10 8 12 17 6 29 -11 20 6 111
20 111 6 0 9 -6 8 -12z m938 -8 c-5 -31 -17 -36 -17 -7 0 15 4 27 10 27 5 0 9
-9 7 -20z m3800 -13 c2 -12 5 -32 8 -43 3 -14 -3 -31 -16 -45 -11 -13 -18 -18
-14 -11 3 6 1 12 -4 12 -16 0 -14 107 2 113 16 6 20 1 24 -26z m-1153 0 c8
-13 7 -20 -4 -27 -8 -5 -18 -10 -21 -10 -11 0 -19 29 -12 45 7 19 23 15 37 -8z
m-687 -19 c-3 -8 -6 -5 -6 6 -1 11 2 17 5 13 3 -3 4 -12 1 -19z m-3632 -104
c1 -16 5 -36 8 -44 4 -8 0 -24 -8 -34 -13 -17 -18 -18 -40 -6 -29 15 -35 53
-8 48 10 -2 18 4 19 12 0 8 2 26 2 38 3 33 25 22 27 -14z m4325 -13 c0 -16
-18 -31 -36 -31 -2 0 -4 16 -4 35 0 33 2 35 20 25 11 -6 20 -19 20 -29z m-380
3 c6 -14 10 -53 10 -87 l-1 -62 -24 46 c-23 44 -81 109 -97 109 -4 0 -8 5 -8
10 0 6 25 10 55 10 50 0 56 -2 65 -26z m1019 -6 c-1 -31 -1 -31 -8 -8 -5 14
-6 28 -4 33 9 15 13 6 12 -25z m-4309 -8 c0 -37 -25 -100 -39 -100 -6 0 -11
20 -11 44 0 25 -5 46 -12 48 -24 8 1 38 32 38 27 0 30 -3 30 -30z m196 -65 c1
-21 -2 -35 -8 -33 -5 2 -9 7 -9 11 1 4 1 21 1 39 0 41 12 29 16 -17z m451 15
c24 0 43 -4 43 -9 0 -5 -6 -9 -12 -8 -31 1 -48 -4 -48 -13 0 -5 6 -9 13 -7 6
1 11 -4 10 -10 -2 -7 4 -13 12 -13 8 0 14 3 13 8 -2 4 1 7 6 7 5 0 8 -24 7
-54 -2 -44 1 -57 20 -77 19 -20 21 -28 12 -42 -6 -10 -14 -36 -17 -58 -6 -36
-10 -40 -39 -42 -25 -2 -29 0 -19 10 14 14 16 32 2 23 -5 -3 -10 1 -10 11 0
12 6 15 22 11 18 -5 16 -1 -11 22 -24 21 -30 30 -20 35 10 4 11 8 3 11 -8 4
-10 21 -7 45 4 31 2 40 -15 49 -30 16 -49 4 -56 -35 -4 -19 -11 -34 -16 -34
-22 0 -8 -30 16 -36 19 -5 22 -9 12 -15 -9 -6 -6 -9 12 -10 14 0 19 -3 12 -6
-16 -6 -72 19 -72 33 0 6 -3 25 -6 42 -5 25 -2 31 15 37 12 3 19 10 16 15 -3
5 0 12 6 15 5 4 8 13 5 21 -3 8 -1 14 4 14 5 0 7 7 4 15 -4 8 -1 15 5 15 6 0
11 12 11 27 0 21 3 24 12 15 7 -7 31 -12 55 -12z m383 5 c10 -12 10 -18 1 -29
-16 -19 -10 -82 6 -79 7 2 10 -4 7 -12 -7 -17 -69 -21 -79 -6 -3 5 4 28 16 50
11 22 18 45 15 50 -7 11 3 41 14 41 4 0 13 -7 20 -15z m2462 -53 c-9 -27 -22
5 -15 39 l7 34 6 -30 c4 -16 4 -36 2 -43z m-1722 39 c10 -21 4 -51 -11 -51 -5
0 -9 16 -9 35 0 40 5 43 20 16z m2389 -38 c-9 -17 -15 -20 -21 -11 -14 23 -9
56 10 60 22 5 27 -18 11 -49z m-4912 -55 c-2 -13 -4 -5 -4 17 -1 22 1 32 4 23
2 -10 2 -28 0 -40z m3313 12 c0 -5 -5 -12 -11 -16 -14 -8 -33 11 -25 25 7 11
36 4 36 -9z m-3211 -24 c10 -19 10 -27 0 -44 -13 -20 -13 -20 -26 5 -13 25 -9
63 6 63 4 0 13 -11 20 -24z m641 -16 c8 12 10 11 10 -6 0 -12 3 -35 6 -51 5
-25 2 -31 -22 -42 -20 -9 -30 -9 -32 -2 -2 6 -10 11 -18 11 -22 0 -19 86 4 99
13 8 20 6 30 -7 11 -15 14 -15 22 -2z m4320 18 c9 -60 10 -77 1 -82 -6 -4 -3
-18 6 -38 17 -33 8 -63 -18 -63 -10 0 -14 16 -16 60 -2 75 5 125 17 125 6 0
10 -1 10 -2z m-147 -33 c7 -16 -8 -29 -23 -20 -15 9 -12 35 4 35 8 0 16 -7 19
-15z m-5616 -3 c6 -4 14 -19 18 -34 5 -21 3 -27 -14 -33 -36 -11 -52 15 -35
59 7 18 13 19 31 8z m4953 -6 c0 -8 -4 -18 -10 -21 -5 -3 -10 3 -10 14 0 12 5
21 10 21 6 0 10 -6 10 -14z m1130 -36 c11 -22 25 -40 30 -40 6 0 10 -7 10 -16
0 -8 -4 -12 -10 -9 -5 3 -10 1 -10 -4 0 -6 7 -11 15 -11 10 0 16 -11 17 -32
l1 -33 4 33 c2 17 8 32 14 32 5 0 7 -32 4 -76 -3 -43 -1 -83 5 -95 7 -13 7
-19 0 -19 -5 0 -10 -17 -10 -38 0 -53 -18 -73 -71 -78 -60 -6 -91 12 -107 64
-13 38 -17 42 -47 42 -45 0 -58 20 -50 72 4 24 13 50 20 58 7 8 16 35 20 60
12 71 22 88 62 109 61 30 80 27 103 -19z m-2250 15 c0 -8 -7 -15 -15 -15 -8 0
-15 7 -15 15 0 8 7 15 15 15 8 0 15 -7 15 -15z m166 -61 c-13 -33 -29 1 -21
43 l8 38 10 -32 c5 -18 7 -40 3 -49z m-1226 36 c0 -13 12 -25 36 -35 31 -13
35 -18 30 -42 -4 -19 0 -36 14 -53 l20 -25 0 25 c0 14 4 30 8 36 13 19 48 33
70 27 23 -6 31 -25 10 -20 -7 1 -13 -7 -13 -18 0 -31 30 -30 31 0 2 33 5 35
33 28 21 -5 23 -10 20 -77 -3 -78 -21 -116 -44 -92 -7 7 -15 21 -17 32 -8 34
-30 -36 -23 -74 10 -52 -1 -72 -38 -72 -29 1 -30 2 -14 14 21 16 22 42 2 63
-12 11 -13 18 -5 29 13 14 4 54 -11 54 -5 0 -9 10 -10 23 0 21 -1 21 -10 -3
-6 -14 -11 -45 -12 -70 -2 -41 -4 -45 -29 -48 -27 -3 -58 -35 -58 -59 0 -15
41 -13 53 2 5 6 5 0 2 -12 -3 -13 1 -49 9 -82 12 -45 13 -68 4 -97 -6 -22 -11
-55 -13 -74 -2 -39 -18 -47 -92 -49 l-42 -1 6 33 c3 17 15 39 26 48 14 11 21
31 24 68 3 47 1 56 -22 77 -22 20 -25 30 -20 57 9 41 9 39 3 57 -23 68 -28
100 -28 198 l0 113 30 6 c17 3 35 14 41 25 12 22 29 15 29 -12z m-1614 -6 c-5
-14 -9 -15 -19 -5 -9 9 -9 14 3 21 18 11 24 6 16 -16z m1327 9 c9 -16 17 -148
10 -159 -14 -20 -65 -21 -77 -2 -8 14 -6 26 8 53 18 33 18 36 3 53 -24 26 -21
39 11 50 35 13 40 14 45 5z m-1789 -54 c-8 -14 -24 -10 -24 6 0 9 6 12 15 9 8
-4 12 -10 9 -15z m3140 -42 c3 -26 1 -47 -5 -47 -5 0 -9 9 -9 21 0 11 -4 18
-8 15 -10 -6 -9 35 2 52 12 19 15 11 20 -41z m-3034 -13 c0 -34 -4 -53 -10
-49 -5 3 -10 28 -10 56 0 27 5 49 10 49 6 0 10 -25 10 -56z m740 -8 c7 -15 10
-39 7 -59 -3 -19 -1 -39 5 -45 6 -6 12 -29 14 -51 4 -49 33 -99 45 -79 5 7 6
31 2 53 -6 36 -5 39 10 26 11 -8 17 -9 17 -3 0 6 -9 16 -20 22 -17 9 -20 21
-20 70 0 64 16 92 49 83 11 -3 25 -19 30 -35 14 -39 14 -155 1 -163 -5 -3 -10
-19 -10 -36 0 -16 -4 -29 -10 -29 -5 0 -10 7 -10 15 0 9 -6 12 -15 9 -11 -5
-13 -10 -5 -19 15 -18 1 -25 -51 -25 -57 0 -89 23 -92 65 -2 27 1 30 27 30 16
0 31 6 33 13 3 6 0 12 -6 12 -6 0 -11 8 -11 18 0 14 -8 19 -30 20 -16 0 -32
-4 -35 -9 -11 -16 -62 -10 -70 8 -3 10 -1 19 4 21 6 2 11 12 11 22 0 29 22 36
38 12 20 -31 27 -27 29 14 3 62 39 84 63 40z m4074 16 c8 -13 -5 -52 -15 -46
-12 7 -12 54 0 54 6 0 12 -4 15 -8z m-1634 -6 c0 -3 -4 -8 -10 -11 -5 -3 -10
-1 -10 4 0 6 5 11 10 11 6 0 10 -2 10 -4z m1790 -77 c0 -5 -5 -9 -12 -9 -6 0
-8 3 -5 7 4 3 -1 11 -10 18 -10 8 -14 19 -9 30 6 17 9 16 21 -9 8 -16 15 -32
15 -37z m-5294 26 c22 -30 19 -208 -5 -275 -10 -30 -26 -59 -35 -66 -15 -10
-13 -14 19 -34 33 -20 35 -25 35 -75 0 -29 -6 -67 -13 -84 -10 -23 -11 -46 -5
-79 5 -26 11 -130 14 -232 6 -176 5 -186 -14 -206 -18 -19 -19 -24 -6 -42 17
-25 24 -173 8 -193 -6 -8 -14 -25 -17 -37 -8 -33 11 -202 24 -218 16 -19 2
-102 -22 -132 -10 -14 -16 -28 -14 -32 3 -5 1 -11 -5 -15 -5 -3 -10 -17 -10
-29 0 -34 -23 -48 -72 -44 l-43 3 2 40 c1 22 8 50 14 63 10 18 10 31 0 65 -7
23 -13 58 -13 79 1 20 -5 41 -13 48 -21 18 -19 57 4 70 11 5 38 10 61 10 l41
0 -21 22 c-11 12 -20 32 -20 45 0 16 -6 23 -20 23 -11 0 -34 13 -51 28 l-31
28 -4 125 c-4 115 -3 127 20 174 16 32 26 44 30 35 12 -40 16 -42 12 -10 -5
39 -36 132 -47 140 -4 3 -10 31 -14 62 -7 55 -6 57 18 63 13 4 31 6 38 5 8 -2
21 -2 29 -1 13 1 13 2 0 11 -8 5 -22 7 -30 5 -19 -6 -56 74 -59 126 -1 32 3
39 31 56 23 13 38 34 49 64 9 25 25 48 37 54 25 11 29 25 8 25 -9 0 -16 12
-18 28 -3 24 -8 28 -45 33 -24 3 -46 9 -50 13 -5 4 -8 30 -7 57 0 35 6 55 22
72 13 14 18 27 13 36 -10 16 14 101 32 113 6 5 38 7 71 5 43 -2 62 -9 72 -22z
m-326 -35 c4 -14 3 -35 -1 -47 -5 -13 -5 -23 0 -23 12 0 20 -35 11 -50 -4 -6
-18 -10 -31 -8 -22 3 -24 9 -29 71 -3 38 -1 72 5 78 16 16 39 6 45 -21z m3689
-7 c10 -35 8 -40 -16 -60 -20 -17 -22 -23 -10 -23 10 0 17 -7 17 -15 0 -8 -9
-15 -20 -15 -20 0 -21 5 -18 75 3 63 6 75 20 75 11 0 21 -13 27 -37z m2427 2
c-1 -36 -12 -41 -29 -13 -12 19 -3 48 16 48 9 0 13 -12 13 -35z m-5109 -9 c-7
-41 11 -61 46 -52 49 12 65 -2 73 -60 5 -45 3 -58 -11 -74 -10 -11 -24 -20
-32 -20 -7 0 -13 -7 -13 -15 0 -18 -29 -19 -65 -3 -22 10 -25 18 -27 62 -1 28
-3 69 -4 90 -1 45 15 106 29 106 5 0 7 -15 4 -34z m53 19 c0 -8 -2 -15 -4 -15
-2 0 -6 7 -10 15 -3 8 -1 15 4 15 6 0 10 -7 10 -15z m920 -4 c0 -5 -8 -17 -17
-27 -21 -20 -31 -2 -11 20 15 17 28 20 28 7z m3490 -43 c0 -18 -5 -40 -11 -48
-9 -13 -10 -12 -5 2 3 10 -2 24 -10 33 -18 18 -12 45 11 45 10 0 15 -10 15
-32z m147 7 c7 -20 -2 -29 -21 -22 -9 4 -13 13 -10 22 8 19 23 19 31 0z
m-4977 -30 c0 -40 -15 -47 -24 -11 -3 14 -13 23 -22 22 -9 0 -19 5 -21 12 -3
8 7 12 31 12 34 0 36 -2 36 -35z m4147 3 c-3 -7 -5 -2 -5 12 0 14 2 19 5 13 2
-7 2 -19 0 -25z m-4094 -18 c-8 -31 -23 -34 -23 -6 0 16 6 26 14 26 9 0 12 -7
9 -20z m1625 -2 c-5 -15 -23 -11 -26 6 -2 11 2 14 13 10 9 -4 14 -11 13 -16z
m-1022 -43 c15 -56 6 -75 -32 -75 -32 0 -36 12 -28 76 6 48 9 55 27 52 16 -2
24 -15 33 -53z m-786 -5 c0 -58 -14 -65 -30 -15 -9 28 -9 39 0 50 22 26 30 16
30 -35z m1396 24 c-4 -9 1 -14 15 -14 14 0 19 5 16 14 -4 10 4 12 30 10 41 -3
45 -6 38 -25 -4 -10 -24 -14 -67 -15 -57 -1 -63 -3 -68 -25 -6 -23 -6 -23 -18
-4 -6 11 -12 14 -12 7 0 -7 -4 -10 -10 -7 -17 11 -11 25 11 25 11 0 17 5 14
10 -3 6 -17 10 -30 10 -17 0 -23 4 -19 14 4 9 22 14 56 14 39 1 49 -2 44 -14z
m3204 -64 c0 -5 -4 -10 -10 -10 -5 0 -10 5 -10 10 0 6 5 10 10 10 6 0 10 -4
10 -10z m-5104 -21 c11 -18 6 -92 -7 -100 -10 -6 -10 -11 -1 -21 6 -8 12 -38
14 -67 2 -42 -1 -56 -14 -64 -23 -15 -44 4 -33 30 12 28 15 63 5 63 -5 0 -7 7
-4 15 3 8 0 17 -8 20 -13 5 -14 23 -9 97 1 10 31 38 41 38 5 0 12 -5 16 -11z
m1893 -64 c1 -29 -1 -31 -39 -31 -28 0 -40 4 -40 13 0 23 20 54 31 48 5 -4 9
0 9 7 0 8 6 20 13 27 10 10 13 7 19 -11 3 -13 6 -37 7 -53z m116 18 c8 -64 11
-187 4 -218 -2 -11 -12 -23 -21 -27 -19 -8 -13 -47 8 -55 19 -7 19 -103 1
-103 -7 0 -18 5 -24 11 -7 7 -15 6 -25 -5 -14 -13 -16 -11 -22 26 -6 37 -4 44
21 65 l28 24 -27 -4 c-27 -4 -40 14 -19 27 13 8 3 187 -12 204 -10 13 -8 14
13 9 14 -4 19 -4 13 -1 -7 3 -13 14 -13 24 0 10 -5 22 -11 26 -9 5 54 53 72
54 4 0 10 -26 14 -57z m3614 -11 c1 -19 -4 -23 -21 -20 -29 4 -35 34 -12 59
17 19 19 19 25 2 4 -10 8 -28 8 -41z m-4912 20 c2 -17 -2 -22 -18 -22 -15 0
-19 4 -15 16 3 9 6 20 6 26 0 19 23 2 27 -20z m1623 24 c0 -3 -4 -8 -10 -11
-5 -3 -10 -1 -10 4 0 6 5 11 10 11 6 0 10 -2 10 -4z m-1740 -35 c0 -12 -20
-25 -27 -18 -7 7 6 27 18 27 5 0 9 -4 9 -9z m4368 -3 c-3 -7 -15 -14 -29 -16
-23 -2 -23 -2 -5 13 24 18 39 20 34 3z m963 -19 c5 -8 9 -31 9 -51 0 -20 5
-40 10 -43 6 -3 10 3 10 15 0 12 4 19 9 16 5 -3 5 -21 1 -41 -4 -20 -4 -38 1
-41 5 -3 9 -13 9 -22 0 -9 12 -28 25 -41 14 -12 22 -27 19 -33 -3 -5 -7 -39
-9 -75 -2 -64 -3 -66 -36 -80 -38 -16 -131 -12 -137 6 -2 6 -21 15 -43 21 -28
8 -46 21 -60 43 -29 47 -21 77 26 105 22 13 32 21 23 19 -9 -3 -19 1 -22 9 -3
8 -12 14 -20 14 -7 0 -17 7 -20 16 -12 31 -6 125 10 156 l16 30 85 -4 c58 -3
87 -9 94 -19z m-3122 -18 c9 -15 7 -23 -5 -36 -15 -15 -15 -17 2 -30 18 -13
18 -14 0 -34 -11 -12 -16 -27 -12 -37 7 -19 -9 -34 -36 -34 -11 0 -18 8 -18
20 0 11 -4 20 -9 20 -16 0 -6 28 18 54 26 28 22 55 -9 63 -19 5 -25 15 -15 24
2 3 20 6 39 7 26 2 38 -2 45 -17z m2251 9 c0 -5 -7 -10 -15 -10 -8 0 -15 5
-15 10 0 6 7 10 15 10 8 0 15 -4 15 -10z m-4460 -4 c0 -3 -4 -8 -10 -11 -5 -3
-10 -1 -10 4 0 6 5 11 10 11 6 0 10 -2 10 -4z m698 -69 c3 -65 2 -67 -21 -67
-23 0 -25 4 -29 63 -5 63 2 80 32 74 11 -2 16 -19 18 -70z m182 9 c0 -7 -18
-10 -50 -8 l-50 4 0 -41 c0 -27 5 -44 14 -47 11 -4 14 -24 14 -80 -1 -41 -2
-74 -4 -74 -2 0 -19 9 -38 21 -40 23 -41 27 -30 163 l7 76 68 -1 c44 -1 69 -6
69 -13z m420 -37 c0 -28 -32 -69 -53 -69 -40 0 -62 41 -36 67 13 13 89 15 89
2z m4200 -15 c0 -8 -5 -12 -10 -9 -6 4 -8 11 -5 16 9 14 15 11 15 -7z m-4570
-59 c0 -7 -7 -15 -15 -19 -15 -5 -22 24 -9 37 9 9 24 -2 24 -18z m-52 -8 c-4
-21 -1 -24 22 -21 26 3 27 3 28 -64 2 -92 -3 -105 -36 -97 -15 4 -30 12 -34
18 -11 17 -8 115 4 155 11 37 22 43 16 9z m-178 -33 l0 -36 -32 21 c-47 29
-49 51 -4 51 35 0 36 -1 36 -36z m1024 30 c18 -7 12 -24 -10 -24 -8 0 -14 7
-14 15 0 17 2 18 24 9z m-1917 -36 c-3 -8 -6 -5 -6 6 -1 11 2 17 5 13 3 -3 4
-12 1 -19z m-401 -3 c3 -8 1 -27 -4 -42 -7 -18 -11 -21 -11 -10 -1 9 -5 17
-11 17 -11 0 -14 33 -3 43 11 11 23 8 29 -8z m2 -134 c-1 -14 -7 -29 -13 -33
-7 -6 -6 -10 1 -15 19 -13 23 -130 4 -118 -6 4 -8 11 -5 16 4 5 -1 9 -9 9 -13
0 -16 14 -16 79 0 44 3 87 6 95 10 25 34 0 32 -33z m5452 -2 c0 -16 -4 -29 -9
-29 -13 0 -22 28 -10 36 6 4 6 11 -2 20 -10 12 -9 13 5 8 10 -4 16 -17 16 -35z
m-3570 -64 c0 -11 5 -12 26 -5 14 6 30 7 36 4 13 -9 -62 -46 -79 -40 -9 4 -10
-1 -3 -20 12 -32 12 -37 0 -29 -5 3 -8 0 -5 -7 6 -18 -21 -52 -35 -43 -20 13
-2 117 23 137 27 22 37 22 37 3z m4042 -62 c28 -29 37 -48 39 -78 2 -22 6 -44
10 -50 4 -5 9 -65 12 -133 l6 -123 -25 -9 c-37 -14 -67 -13 -61 3 5 13 -48 40
-70 36 -4 -1 -24 -1 -43 0 -39 2 -70 34 -76 79 -2 15 -6 50 -10 77 -9 71 10
158 43 200 26 32 32 35 83 35 51 0 59 -3 92 -37z m-6074 -38 c1 -14 -3 -25 -9
-25 -6 0 -9 7 -5 15 3 9 0 15 -9 15 -10 0 -15 10 -15 27 0 24 1 25 18 10 10
-9 19 -28 20 -42z m5371 -2 c-4 -21 -10 -48 -14 -59 -5 -15 -2 -23 9 -27 9 -4
16 -18 16 -32 0 -14 4 -25 9 -25 4 0 7 -10 6 -22 -1 -13 -3 -38 -4 -55 -1 -36
-29 -47 -38 -15 -3 13 -21 22 -63 30 -35 8 -60 19 -64 28 -11 29 -6 59 12 75
27 25 62 72 62 85 0 7 -7 14 -15 18 -9 3 -15 0 -15 -9 0 -9 -10 -15 -26 -15
-22 0 -25 4 -22 28 3 26 6 27 73 32 39 3 73 4 76 3 4 -2 3 -20 -2 -40z m159
-40 c2 -8 -5 -13 -17 -13 -33 0 -34 -17 -1 -51 16 -18 30 -36 30 -41 0 -17
-28 -38 -52 -38 -44 0 -53 15 -51 80 2 34 5 66 9 71 8 14 77 7 82 -8z m-474
-45 c5 -24 3 -28 -14 -28 -22 0 -27 29 -8 48 14 14 13 14 22 -20z m149 -35 c8
-44 -13 -74 -27 -37 -7 18 3 64 14 64 4 0 10 -12 13 -27z m397 -53 c13 -25 3
-70 -15 -64 -7 3 -12 21 -12 45 1 43 10 50 27 19z m-400 -95 c0 -8 -4 -15 -10
-15 -5 0 -10 7 -10 15 0 8 5 15 10 15 6 0 10 -7 10 -15z m160 1 c0 -8 6 -16
13 -19 9 -3 9 -9 -1 -26 -7 -12 -15 -52 -18 -90 -4 -63 -3 -69 16 -74 20 -5
28 -27 10 -27 -5 0 -10 -15 -10 -32 0 -18 0 -64 -1 -101 0 -37 4 -73 9 -80 5
-7 9 -34 7 -62 -4 -69 -3 -69 -19 -56 -10 8 -16 9 -21 1 -11 -18 -31 -11 -69
24 -38 37 -46 56 -21 56 24 0 17 29 -9 36 -18 4 -25 14 -30 45 -7 44 4 73 34
89 11 6 20 19 20 30 0 28 18 34 45 16 24 -16 43 -7 30 14 -3 6 -1 10 4 10 6 0
11 4 11 10 0 5 -7 7 -15 4 -8 -4 -33 3 -55 15 -22 12 -47 21 -55 21 -20 0 -20
89 0 116 8 10 15 26 15 34 0 35 30 60 71 60 27 0 39 -4 39 -14z m-5360 -89 c0
-7 -7 -14 -15 -14 -8 0 -15 5 -15 11 0 6 -3 22 -7 36 l-6 25 22 -22 c11 -12
21 -28 21 -36z m5535 -121 c-3 -17 -9 -48 -12 -68 -7 -48 -22 -61 -53 -45 -23
11 -25 19 -28 84 -3 68 -2 72 20 75 13 2 36 0 51 -5 26 -9 28 -13 22 -41z
m540 18 c10 -19 27 -40 38 -45 10 -6 16 -16 13 -24 -2 -8 4 -16 17 -19 17 -5
19 -8 8 -15 -7 -5 -9 -11 -4 -14 18 -11 2 -64 -21 -75 -25 -11 -60 2 -40 16
23 15 27 122 5 122 -17 0 -36 -90 -35 -168 0 -94 6 -102 67 -102 24 0 37 -5
37 -13 0 -19 -50 -41 -63 -28 -7 7 -20 5 -39 -7 -28 -16 -30 -16 -46 4 -9 12
-32 29 -50 39 l-34 16 5 72 c7 91 17 149 29 164 7 8 0 17 -24 29 -39 20 -48
31 -48 62 0 21 4 22 83 22 l82 0 20 -36z m-5513 -46 c-15 -15 -27 14 -17 40 6
15 8 15 18 -6 7 -16 7 -26 -1 -34z m5043 -147 c-3 -6 -11 -8 -17 -5 -6 4 -5 9
3 15 16 10 23 4 14 -10z m-71 -13 c8 -30 8 -93 0 -101 -8 -7 -44 36 -44 52 0
6 -7 8 -15 5 -10 -4 -15 0 -15 14 0 12 -5 24 -10 27 -19 12 1 25 39 25 32 0
40 -4 45 -22z m216 -18 c13 -9 13 -11 0 -19 -17 -12 -30 -5 -30 15 0 16 9 18
30 4z m-5760 -50 c0 -5 -4 -10 -10 -10 -5 0 -10 5 -10 10 0 6 5 10 10 10 6 0
10 -4 10 -10z m5774 -45 c4 -11 -1 -15 -19 -15 -24 0 -32 10 -18 23 11 12 31
8 37 -8z m-294 -5 c0 -5 -5 -10 -11 -10 -5 0 -7 5 -4 10 3 6 8 10 11 10 2 0 4
-4 4 -10z m-5325 -39 c-4 -17 -11 -29 -15 -26 -5 3 -7 12 -5 20 3 8 7 22 10
31 9 28 17 7 10 -25z m489 7 c9 -17 14 -33 12 -35 -8 -8 -36 29 -36 48 0 27 6
24 24 -13z m4885 -27 c22 -14 26 -103 6 -135 -20 -30 -41 -33 -67 -9 -21 19
-26 121 -6 141 14 14 47 15 67 3z m-4830 -83 c24 -47 28 -64 19 -70 -18 -11
-39 -10 -76 3 -28 10 -31 14 -26 37 4 15 15 36 25 48 11 11 19 26 19 32 0 23
9 12 39 -50z m-549 -8 c9 -16 8 -20 -5 -20 -8 0 -15 9 -15 20 0 11 2 20 5 20
2 0 9 -9 15 -20z m5933 -18 c8 -21 27 -44 41 -51 18 -10 26 -23 26 -41 0 -15
3 -30 7 -34 4 -4 7 -51 8 -105 l0 -99 -63 -6 c-85 -9 -178 2 -205 25 -21 17
-22 23 -19 158 3 128 5 143 25 166 20 22 30 25 93 25 l72 0 15 -38z m84 -94
c-3 -8 -6 -5 -6 6 -1 11 2 17 5 13 3 -3 4 -12 1 -19z m-5691 -33 c10 -15 16
-42 15 -65 -2 -22 -3 -57 -3 -77 0 -21 -5 -77 -10 -126 -5 -53 -5 -94 1 -105
6 -11 4 -45 -4 -92 -11 -62 -11 -81 0 -107 13 -30 12 -34 -11 -52 -22 -17 -23
-19 -5 -24 14 -3 21 -18 27 -53 9 -63 -3 -355 -16 -390 -8 -21 -7 -31 4 -43
17 -19 20 -39 18 -157 l-2 -92 -34 -16 c-74 -35 -146 -11 -146 49 0 13 -10 31
-23 40 -21 14 -22 24 -25 148 -3 112 -1 135 12 146 9 8 16 20 16 27 0 8 6 14
13 14 7 0 17 10 22 23 6 13 21 23 38 25 34 4 37 32 3 32 -32 0 -56 10 -56 23
0 6 -9 20 -20 32 -12 12 -23 39 -27 59 -5 32 -3 38 15 43 l22 5 -20 25 c-15
19 -20 41 -20 85 0 59 23 124 40 113 12 -7 50 80 50 115 0 18 -8 31 -26 40
-14 8 -35 27 -46 42 -18 26 -19 38 -13 149 7 116 9 121 38 151 24 24 37 29 61
25 17 -2 40 -1 51 4 33 13 44 10 61 -16z m255 -21 c10 -13 10 -17 -2 -24 -8
-5 -14 -15 -14 -21 0 -14 -27 -20 -43 -10 -11 6 -15 25 -13 54 1 22 53 23 72
1z m4879 -50 c0 -8 -7 -14 -15 -14 -8 0 -15 9 -15 20 0 13 5 18 15 14 8 -4 15
-12 15 -20z m-5040 -5 c0 -11 -4 -17 -10 -14 -5 3 -10 13 -10 21 0 8 5 14 10
14 6 0 10 -9 10 -21z m-570 -53 c0 -8 -4 -17 -9 -21 -12 -7 -24 12 -16 25 9
15 25 12 25 -4z m168 -5 c3 -8 -1 -12 -9 -9 -7 2 -15 10 -17 17 -3 8 1 12 9 9
7 -2 15 -10 17 -17z m5875 -174 c29 -8 54 -22 64 -38 9 -13 24 -29 32 -35 17
-13 29 -111 30 -232 l1 -74 -52 7 c-53 6 -170 30 -218 44 -23 7 -26 14 -32 87
-7 73 -4 159 8 210 4 15 18 24 52 31 63 14 61 14 115 0z m-5450 -39 c4 -23 0
-37 -11 -46 -15 -11 -18 -9 -24 19 -3 18 -4 38 -1 46 10 24 31 13 36 -19z
m-590 -34 c4 -25 2 -41 -9 -51 -19 -19 -20 -18 -27 40 -6 41 -4 47 12 47 13 0
20 -10 24 -36z m5765 -47 c-1 -12 1 -28 6 -35 12 -19 -1 -27 -19 -12 -15 12
-21 61 -9 73 12 12 25 -4 22 -26z m-5758 -101 c0 -35 -4 -45 -20 -49 -27 -7
-33 6 -25 53 5 30 11 40 26 40 16 0 19 -7 19 -44z m5778 -31 c1 -11 -2 -26 -7
-34 -12 -18 -51 3 -51 29 0 34 53 39 58 5z m-5620 -29 c3 -34 1 -37 -20 -34
-17 2 -24 11 -26 32 -4 28 13 49 33 43 6 -2 11 -20 13 -41z m-166 -64 c6 -39
0 -52 -23 -52 -16 0 -18 3 -9 19 7 14 7 22 0 26 -8 5 -7 11 1 21 17 21 26 17
31 -14z m868 11 c0 -22 -34 -148 -48 -183 -8 -20 -11 -1 -11 88 l-1 112 30 0
c22 0 30 -5 30 -17z m-702 -91 c2 -32 0 -42 -12 -42 -24 0 -38 34 -26 65 14
38 34 26 38 -23z m5602 -2 l-8 -35 -1 45 c-1 27 3 40 8 35 6 -6 6 -25 1 -45z
m-5116 -32 c3 -13 6 -34 6 -48 0 -15 5 -31 12 -38 9 -9 7 -12 -11 -12 -19 0
-21 4 -16 23 6 18 5 20 -6 10 -25 -25 -29 -12 -20 75 2 21 28 13 35 -10z m76
12 c0 -5 -7 -10 -16 -10 -8 0 -12 5 -9 10 3 6 10 10 16 10 5 0 9 -4 9 -10z
m5323 -37 c9 -2 17 -8 17 -12 0 -5 11 -20 25 -35 22 -24 25 -33 19 -76 -6 -42
-4 -49 15 -59 19 -10 21 -21 21 -90 0 -78 0 -79 -27 -84 -16 -3 -37 -8 -49
-12 -17 -5 -38 8 -102 65 -44 39 -83 79 -87 87 -12 33 -18 133 -8 145 6 7 13
25 17 40 10 41 75 54 159 31z m-6056 -49 c-9 -9 -28 6 -21 18 4 6 10 6 17 -1
6 -6 8 -13 4 -17z m173 -4 c0 -4 -7 -13 -15 -20 -13 -11 -15 -8 -15 13 0 19 4
25 15 21 8 -4 15 -10 15 -14z m-176 -97 c-8 -33 -12 -39 -20 -30 -9 9 5 57 16
57 6 0 8 -11 4 -27z m6309 -25 c4 -13 1 -26 -6 -30 -9 -6 -9 -8 1 -8 6 0 12
-4 12 -8 0 -5 -7 -9 -15 -9 -20 0 -40 58 -23 69 20 12 25 10 31 -14z m-5723
-19 c0 8 3 12 6 9 8 -9 -16 -49 -26 -43 -4 3 -6 14 -3 26 4 16 8 17 14 7 7
-11 9 -10 9 1z m124 -4 c4 -13 2 -14 -14 -5 -23 13 -26 20 -6 20 8 0 16 -7 20
-15z m-37 -11 c-3 -3 -12 -4 -19 -1 -8 3 -5 6 6 6 11 1 17 -2 13 -5z m25 -59
c3 -14 1 -25 -3 -25 -5 0 -9 11 -9 25 0 14 2 25 4 25 2 0 6 -11 8 -25z m-688
-10 c6 -18 -3 -73 -14 -80 -11 -7 -28 16 -32 45 -2 16 1 24 10 23 6 -2 11 0
11 5 -4 25 15 31 25 7z m576 -28 c0 -5 -4 -5 -10 -2 -5 3 -10 14 -10 23 0 15
2 15 10 2 5 -8 10 -19 10 -23z m5699 -4 c0 -5 -4 -17 -9 -28 -8 -18 -9 -17 -9
8 -1 15 4 27 9 27 6 0 10 -3 9 -7z m-6109 -78 c0 -9 -9 -15 -21 -15 -18 0 -19
2 -9 15 7 8 16 15 21 15 5 0 9 -7 9 -15z m-164 -79 c-3 -14 -11 -26 -17 -26
-6 0 -8 7 -5 16 3 9 6 25 6 37 0 16 3 18 11 10 7 -7 9 -23 5 -37z m577 27 c11
-20 15 -60 7 -72 -13 -22 -40 4 -40 39 0 34 21 55 33 33z m5689 -58 c0 -5 -5
-11 -11 -13 -6 -2 -11 4 -11 13 0 9 5 15 11 13 6 -2 11 -8 11 -13z m-6117 -35
c3 -5 1 -10 -4 -10 -6 0 -11 5 -11 10 0 6 2 10 4 10 3 0 8 -4 11 -10z m-145
-56 c0 -29 -14 -44 -39 -44 -15 0 -9 74 7 86 21 16 32 2 32 -42z m581 -21 c6
-18 6 -30 -2 -39 -16 -20 -39 1 -39 36 0 48 23 49 41 3z m164 -23 c3 -5 -1
-10 -9 -10 -9 0 -16 5 -16 10 0 6 4 10 9 10 6 0 13 -4 16 -10z m-305 -44 c5
-13 14 -27 19 -31 6 -3 11 -28 11 -55 0 -39 -5 -53 -30 -80 -25 -27 -33 -30
-45 -20 -20 17 -21 15 -29 -51 -7 -53 -6 -57 16 -63 36 -9 38 -8 38 24 0 17 5
30 10 30 16 0 12 -86 -5 -100 -19 -16 -71 -4 -80 18 -4 9 -8 59 -10 111 -2 90
-3 94 -34 123 -17 16 -31 33 -31 37 0 18 73 66 108 72 20 3 40 7 45 8 4 0 12
-10 17 -23z m308 2 c-6 -18 -48 -19 -48 -2 0 8 11 14 26 14 16 0 24 -5 22 -12z
m5557 2 c11 -17 -5 -32 -21 -19 -8 6 -14 15 -14 20 0 12 27 11 35 -1z m-6150
-70 c3 -6 -1 -13 -10 -16 -19 -8 -30 0 -20 15 8 14 22 14 30 1z m587 -92 c-9
-9 -12 -7 -12 12 0 19 3 21 12 12 9 -9 9 -15 0 -24z m-95 -30 c-3 -7 -5 -2 -5
12 0 14 2 19 5 13 2 -7 2 -19 0 -25z m-658 -146 c-5 -2 -9 -9 -9 -16 0 -7 -7
-13 -15 -13 -8 0 -15 4 -15 9 0 4 5 8 11 8 6 0 8 9 4 20 -10 32 6 46 21 19 7
-13 8 -25 3 -27z m761 17 c0 -11 -4 -18 -10 -14 -5 3 -7 12 -3 20 7 21 13 19
13 -6z m-170 -59 c0 -33 -3 -40 -20 -40 -15 0 -20 7 -20 28 0 27 15 52 32 52
4 0 8 -18 8 -40z m-428 7 c6 -30 -10 -74 -21 -61 -13 13 -17 56 -8 72 12 19
24 14 29 -11z m498 -107 c0 -5 -4 -10 -10 -10 -5 0 -10 5 -10 10 0 6 5 10 10
10 6 0 10 -4 10 -10z m-83 -36 c3 -8 0 -27 -7 -42 l-12 -27 -9 24 c-10 26 -3
61 12 61 5 0 12 -7 16 -16z m164 -234 l-10 -25 0 27 c-1 14 2 35 6 45 7 17 8
17 11 -2 1 -12 -2 -32 -7 -45z m-28 -77 c3 -5 0 -34 -5 -65 -8 -48 -13 -58
-30 -58 -11 0 -22 8 -25 19 -4 17 -36 35 -56 32 -4 -1 -3 8 3 19 6 11 15 18
20 15 12 -8 50 17 50 32 0 14 36 18 43 6z m-713 -99 c0 -8 -4 -12 -10 -9 -5 3
-10 10 -10 16 0 5 5 9 10 9 6 0 10 -7 10 -16z m694 -120 c25 -9 19 -24 -9 -24
-16 0 -25 6 -25 15 0 16 9 19 34 9z m-102 -265 c-1 -37 -4 -41 -26 -33 -19 7
-22 54 -4 72 17 17 31 -1 30 -39z m-432 -39 c0 -5 -5 -10 -11 -10 -5 0 -7 5
-4 10 3 6 8 10 11 10 2 0 4 -4 4 -10z m-168 -132 c-13 -13 -24 5 -16 27 7 16
8 16 17 0 6 -11 6 -20 -1 -27z m168 -34 c0 -8 -5 -12 -10 -9 -6 4 -8 11 -5 16
9 14 15 11 15 -7z m0 -34 c0 -5 -4 -10 -10 -10 -5 0 -10 5 -10 10 0 6 5 10 10
10 6 0 10 -4 10 -10z"/>
<path d="M2940 6018 c0 -19 2 -20 10 -8 13 19 13 30 0 30 -5 0 -10 -10 -10
-22z"/>
<path d="M6346 6181 c-4 -7 -5 -15 -2 -18 9 -9 19 4 14 18 -4 11 -6 11 -12 0z"/>
<path d="M3610 5179 c0 -11 5 -17 10 -14 6 3 10 13 10 21 0 8 -4 14 -10 14 -5
0 -10 -9 -10 -21z"/>
<path d="M6078 5873 c7 -3 16 -2 19 1 4 3 -2 6 -13 5 -11 0 -14 -3 -6 -6z"/>
<path d="M460 5770 c0 -5 5 -10 10 -10 6 0 10 5 10 10 0 6 -4 10 -10 10 -5 0
-10 -4 -10 -10z"/>
<path d="M2110 5321 c0 -6 5 -13 10 -16 6 -3 10 1 10 9 0 9 -4 16 -10 16 -5 0
-10 -4 -10 -9z"/>
<path d="M2180 5148 c0 -7 5 -20 10 -28 8 -12 10 -11 10 7 0 12 -4 25 -10 28
-5 3 -10 0 -10 -7z"/>
<path d="M1722 4860 c0 -14 2 -19 5 -12 2 6 2 18 0 25 -3 6 -5 1 -5 -13z"/>
<path d="M500 3815 c0 -14 4 -25 9 -25 5 0 12 -8 14 -17 3 -10 5 1 6 25 1 31
-3 42 -14 42 -9 0 -15 -9 -15 -25z"/>
<path d="M430 3797 c0 -23 11 -47 21 -47 15 0 10 37 -6 50 -12 10 -15 10 -15
-3z"/>
<path d="M420 3233 c0 -13 5 -23 10 -23 13 0 13 11 0 30 -8 12 -10 11 -10 -7z"/>
<path d="M1273 4873 c-7 -2 -13 -14 -13 -25 0 -11 -8 -22 -20 -25 -24 -6 -26
-35 -4 -68 23 -35 57 -20 65 29 4 26 2 36 -7 36 -9 0 -12 10 -10 30 2 17 3 30
2 29 0 0 -7 -3 -13 -6z"/>
<path d="M1705 4450 c-3 -5 1 -10 9 -10 9 0 16 5 16 10 0 6 -4 10 -9 10 -6 0
-13 -4 -16 -10z"/>
<path d="M742 3215 c0 -16 2 -22 5 -12 2 9 2 23 0 30 -3 6 -5 -1 -5 -18z"/>
<path d="M711 2284 c0 -11 3 -14 6 -6 3 7 2 16 -1 19 -3 4 -6 -2 -5 -13z"/>
<path d="M6357 5914 c-16 -16 -6 -35 16 -32 12 2 22 10 22 18 0 16 -26 25 -38
14z"/>
<path d="M3970 3949 c-19 -5 -54 -19 -76 -30 -121 -60 -235 -249 -221 -366 9
-78 106 -159 236 -195 78 -21 214 -24 286 -4 154 41 315 176 315 264 0 72
-105 216 -200 274 -87 52 -257 81 -340 57z m209 -68 c83 -26 141 -62 194 -120
92 -103 98 -151 29 -220 -63 -63 -90 -78 -98 -54 -13 46 -45 91 -84 118 -39
28 -48 30 -123 29 -56 0 -92 -5 -113 -17 -44 -23 -102 -93 -116 -139 -6 -21
-13 -38 -15 -38 -13 0 -96 65 -109 86 -37 55 12 189 101 280 88 89 205 115
334 75z"/>
<path d="M2222 3644 c-91 -25 -175 -87 -233 -170 -39 -57 -78 -178 -86 -269
-6 -70 -4 -77 18 -101 60 -64 175 -96 349 -97 195 0 301 36 402 138 54 54 118
174 118 220 0 81 -100 196 -220 254 -71 34 -81 36 -185 38 -73 1 -128 -3 -163
-13z m296 -66 c89 -33 192 -128 208 -192 10 -41 -54 -164 -114 -216 l-47 -42
-11 57 c-14 67 -40 98 -102 119 -57 20 -154 21 -190 2 -63 -33 -102 -104 -102
-186 0 -35 -4 -50 -13 -50 -26 0 -123 32 -154 52 -28 17 -33 26 -33 57 0 50
34 179 60 231 83 163 308 239 498 168z"/>
<path d="M3251 3495 c-62 -18 -107 -42 -171 -95 -25 -21 -71 -54 -103 -74 -89
-57 -109 -115 -58 -167 38 -37 67 -37 148 1 34 17 74 30 88 30 21 0 25 -5 25
-29 0 -51 27 -96 83 -140 l54 -41 7 -69 c6 -59 40 -225 62 -298 5 -20 0 -25
-40 -42 -55 -24 -129 -90 -162 -146 -13 -23 -37 -78 -53 -123 -36 -100 -80
-192 -140 -297 -55 -96 -63 -106 -168 -216 -46 -47 -83 -92 -83 -101 0 -57 87
2 194 132 87 104 115 148 181 279 86 172 151 252 248 303 34 18 58 23 127 23
76 0 92 -3 152 -33 63 -31 162 -109 282 -224 119 -113 416 -237 416 -174 0 19
-18 31 -75 50 -87 29 -208 93 -258 137 -26 22 -77 78 -113 122 -162 203 -262
278 -387 293 -55 7 -57 8 -67 43 -30 113 -51 214 -56 273 -7 67 -7 68 33 120
56 75 63 90 63 146 0 61 17 78 86 84 142 13 208 121 101 168 -143 63 -322 91
-416 65z m348 -990 c28 -16 58 -36 68 -47 15 -16 11 -16 -33 4 -39 18 -68 22
-139 23 -98 0 -152 -16 -213 -62 -40 -30 -50 -26 -21 11 27 34 97 82 140 95
56 17 141 6 198 -24z"/>
</g>
</svg>
